PathFileType	4	(X/Y/Z)	/Users/visionmauri/4_2_2_f_1_Sports2D/4_2_2_f_1_Sports2D_px_person00.trc
DataRate	CameraRate	NumFrames	NumMarkers	Units	OrigDataRate	OrigDataStartFrame	OrigNumFrames
30.0	30.0	8	22	m	30.0	0	325
Frame#	Time	Hip			RHip			RKnee			RAnkle			RBigToe			RSmallToe			RHeel			LHip			LKnee			LAnkle			LBigToe			LSmallToe			LHeel			Neck			Head			Nose			RShoulder			RElbow			RWrist			LShoulder			LElbow			LWrist			
		X1	Y1	Z1	X2	Y2	Z2	X3	Y3	Z3	X4	Y4	Z4	X5	Y5	Z5	X6	Y6	Z6	X7	Y7	Z7	X8	Y8	Z8	X9	Y9	Z9	X10	Y10	Z10	X11	Y11	Z11	X12	Y12	Z12	X13	Y13	Z13	X14	Y14	Z14	X15	Y15	Z15	X16	Y16	Z16	X17	Y17	Z17	X18	Y18	Z18	X19	Y19	Z19	X20	Y20	Z20	X21	Y21	Z21	X22	Y22	Z22
0	0.0	577.162708751401	868.3673108763096	0.0	659.3273317262255	883.3069658954141	0.0	674.2663727799991	1111.1245538841322	0.0	715.3485738038486	1163.4124476917132	0.0	756.4291114930759	1503.276100663633	0.0	775.104409808395	1503.2752278931378	0.0	719.0825928426843	1495.8061856167142	0.0	498.7327251595799	894.5110790293971	0.0	450.18087458615685	1189.5569668374067	0.0	487.528864790738	1469.662791180607	0.0	394.1606194695093	1555.5635712460046	0.0	390.42606263825974	1559.2976106940157	0.0	517.406756210298	1518.2143263857938	0.0	573.4280295760223	494.8925853038559	0.0	580.8974840629467	367.91071308677573	0.0	607.0411292549579	438.87127147164705	0.0	696.6749962883114	547.1789116398602	0.0	782.5745510186914	726.4469011478731	0.0	790.0437601006672	868.3676301367759	0.0	453.9162905838115	539.7090224655834	0.0	375.48583684355765	726.4463468157321	0.0	334.4043683329714	868.3675605119981	0.0
1	0.03343621399176955	577.4940060672634	868.0371997057335	0.0	657.4095578488572	884.769464341475	0.0	672.3142213277403	1105.7770237318844	0.0	712.5587715034951	1157.378033298694	0.0	749.2514295447719	1357.1871360358111	0.0	767.2798951613482	1479.615564704142	0.0	713.4317886050864	1388.006049922121	0.0	499.59272945190406	894.4940699300282	0.0	447.4502233920255	1184.8617707736669	0.0	487.09267280868573	1465.7250928865992	0.0	398.37539925105136	1551.3591978841123	0.0	393.301957352587	1554.6772922803814	0.0	517.9877147250533	1512.4956165197764	0.0	574.5967999858846	495.72979832327223	0.0	581.9645054615875	370.11456861575397	0.0	604.541743132406	438.9451305439662	0.0	696.6790301948712	547.9001721423989	0.0	784.4745972739885	726.6850778796188	0.0	788.9119907821041	864.3015796128408	0.0	454.79498040986977	540.790100401136	0.0	377.061627137587	726.7628890343185	0.0	333.9087124272405	867.1945791384916	0.0
2	0.0668724279835391	577.0462740244715	868.6635890580361	0.0	654.8203804865788	884.5422099149032	0.0	669.5198547369959	1093.9774600617673	0.0	707.5654218115326	1152.180998508079	0.0	738.3077498889207	1200.227022901462	0.0	760.7212868842913	1380.2153283196824	0.0	704.1467509328429	1269.1495596012023	0.0	499.56604167724726	894.6722700024262	0.0	444.5359421403374	1177.1450135466239	0.0	487.3554545215453	1457.748237954398	0.0	404.1853413364353	1542.3051576554683	0.0	397.66273440288916	1545.6738552611791	0.0	519.5558817546276	1503.191028451997	0.0	576.4039793598862	497.99457435529075	0.0	583.6131792702009	372.2305232375014	0.0	603.0874919110968	440.1696161894372	0.0	696.7598286404938	549.6356275467127	0.0	787.8074155676575	728.4811087799119	0.0	788.7119597380913	860.8821876342423	0.0	455.00105380686966	541.6401641328687	0.0	378.52004650055045	726.8401163655959	0.0	333.32716145354766	866.5351107700159	0.0
3	0.10030864197530864	575.1396553103591	869.4066215798088	0.0	652.0195677664831	882.2170292133227	0.0	666.1050088389842	1078.209592516142	0.0	700.0162268524676	1148.6858439732098	0.0	724.9755999078054	1093.6485367744137	0.0	757.043065499416	1236.2404556387464	0.0	691.509421354433	1183.45932230861	0.0	497.98385901683145	893.6048923535919	0.0	442.50626097995917	1167.0042254247737	0.0	488.1835284289422	1447.1720626504186	0.0	409.45913114439645	1527.7969119710704	0.0	402.29810468716454	1532.6669505409523	0.0	521.1910323458637	1492.0865381719666	0.0	578.2643050122465	501.51848909499853	0.0	585.4119174082088	373.80521281508146	0.0	603.1968949003199	443.11791593587947	0.0	696.9086435495033	552.0044243139923	0.0	791.4932291083633	731.6262910680841	0.0	790.3919319095303	860.2935616600796	0.0	454.3183871279432	541.7949819550314	0.0	379.35646776776633	726.4754066256204	0.0	332.79311772424415	867.2603508094498	0.0
4	0.1337448559670782	572.533481870814	869.1508831581884	0.0	649.5933310393162	880.2511708044672	0.0	662.9193493929579	1067.4292289454124	0.0	692.4033820476067	1143.204008837789	0.0	713.5113876959011	1066.8153098850696	0.0	753.6775361274081	1131.8357826311415	0.0	681.5795159849714	1153.7031568853474	0.0	495.67651173100563	891.5123650371305	0.0	442.05894396105464	1156.660063043894	0.0	488.4303624329858	1437.9708546541278	0.0	411.6719031511195	1508.6448994616137	0.0	405.4818591849515	1516.759550499092	0.0	520.3293374108229	1481.6798222427526	0.0	579.0341663129346	504.3092775590382	0.0	586.5861970847592	375.5900435009787	0.0	604.1581779892639	447.25139458454885	0.0	696.7717295844077	553.9495953114345	0.0	793.6380108228419	733.8864886519888	0.0	793.2943433698138	862.0426426040567	0.0	453.3591474715679	542.3191522698659	0.0	379.2516595059257	725.9481925781655	0.0	332.10923718482655	869.2259917358907	0.0
5	0.16718106995884774	570.2757263280795	868.4512465556642	0.0	646.9540992496995	880.6368921628215	0.0	660.8534188922858	1064.716770689957	0.0	687.4169854605251	1132.7610969883274	0.0	706.7435756856263	1077.8008951657305	0.0	748.1864823993526	1085.7137168384172	0.0	679.4096586719897	1149.75293848721	0.0	493.7928959602477	890.8328084105261	0.0	443.35466426278725	1148.255477411197	0.0	487.23704650973565	1430.6540668505431	0.0	411.9393172603432	1485.7574672161606	0.0	407.4499946355143	1497.4231857442398	0.0	515.751202384267	1471.4313462616271	0.0	578.2315227167877	505.37960096516355	0.0	586.7071839202973	378.8698462558664	0.0	604.4047156503702	451.5496505441338	0.0	695.8138905241567	555.6295452234643	0.0	794.1687767839188	733.5965190325958	0.0	795.3244498514572	863.1539971902397	0.0	452.7213721890009	544.4159765712586	0.0	378.00283235298417	725.7652158461817	0.0	331.10520533099196	870.8334759982414	0.0
6	0.2006172839506173	567.3824011909383	867.7536742340966	0.0	643.0069490082619	881.0814280169847	0.0	659.7518513287293	1064.2237963556286	0.0	683.4444399291962	1122.093853249222	0.0	701.5909470367939	1091.9980210701806	0.0	742.1617292607283	1068.8644004485482	0.0	680.2816199209826	1145.0657329395751	0.0	491.8877785844853	891.1408009903544	0.0	446.72243399904596	1143.1263500197535	0.0	484.88030210485095	1422.8841008979834	0.0	413.5698610093233	1461.9030051552813	0.0	409.4589294925737	1476.1274062520692	0.0	509.33683521770666	1461.3807061594136	0.0	576.4281429231943	506.55301176551006	0.0	585.1855515424188	383.6624972818978	0.0	601.6779576867218	455.76428437236	0.0	694.1997268869793	558.3890351645196	0.0	793.8934918592581	731.9915816297198	0.0	795.1126313563163	862.5845500346318	0.0	452.4159450144827	546.9903051160571	0.0	375.58364157200896	725.2329747695271	0.0	330.28943191995063	871.0019357872662	0.0
7	0.23405349794238683	563.0027597351047	866.6217893582049	0.0	638.188454819365	878.6094485246948	0.0	658.5271312483283	1062.5499465912924	0.0	677.5938907980026	1116.8665112896472	0.0	692.2472291611369	1104.607725294286	0.0	735.9760409934152	1072.0578631971518	0.0	677.5292184271871	1137.6466577143378	0.0	489.45757918947714	889.8241703689971	0.0	451.83450795210746	1140.8850910795152	0.0	481.9979022543993	1413.848886484497	0.0	418.45040712396707	1439.7314547831913	0.0	412.1585414065108	1455.7515030413024	0.0	503.5079709136819	1452.9659243749788	0.0	574.381309919829	509.2107470600863	0.0	581.5780068734418	389.0272497140883	0.0	595.2264389697328	460.17987522308636	0.0	692.4366311148129	562.290152339393	0.0	792.3725893004654	731.0383730293003	0.0	793.0425332234657	861.2013962022035	0.0	452.1379129766621	548.8195801225098	0.0	372.58631514043697	723.1191280296415	0.0	330.12885610435194	870.108307138237	0.0
